{"title":"Banned In America 6 (2012) DVDRip XviD","uid":7830207,"size":911429475,"categoryP":"video","categoryS":"movies","magnet":"?xt=urn:btih:b0511264fda0bbf9653045be46fec818bf608282&amp;dn=Banned+In+America+6+%282012%29+DVDRip+XviD&amp;tr=udp%3A%2F%2Ftracker.openbittorrent.com%3A80&amp;tr=udp%3A%2F%2Fopen.demonii.com%3A1337&amp;tr=udp%3A%2F%2Ftracker.coppersurfer.tk%3A6969&amp;tr=udp%3A%2F%2Fexodus.desync.com%3A6969","seeders":0,"leechers":1,"uploader":"wazzzap1","files":-1,"time":1353034661,"description":"Banned In America 6 (2012) DVDRip XviD\n\n===================================================================================\n\nwww.imdb.com/title/\n\n===================================================================================\n\nGeneral\n\nFormat                           : AVI\nFormat/Info                      : Audio Video Interleave\nFile size                        : 856 MiB\nDuration                         : 47mn 14s\nOverall bit rate                 : 2 533 Kbps\nMovie name                       : BANNED_IN_AMERICA_6.Title1.DVDRip\nWriting application              : Lavf53.21.0\nOriginal source form/Name        : BANNED_IN_AMERICA_6\nOriginal source                  : My Own\n\nVideo\nID                               : 0\nFormat                           : MPEG-4 Visual\nFormat profile                   : Advanced Simple@L5\nFormat settings, BVOP            : 2\nFormat settings, QPel            : No\nFormat settings, GMC             : No warppoints\nFormat settings, Matrix          : Default (H.263)\nMuxing mode                      : Packed bitstream\nCodec ID                         : XVID\nCodec ID/Hint                    : XviD\nDuration                         : 47mn 14s\nBit rate                         : 2 330 Kbps\nWidth                            : 720 pixels\nHeight                           : 540 pixels\nDisplay aspect ratio             : 4:3\nFrame rate                       : 29.970 fps\nColor space                      : YUV\nChroma subsampling               : 4:2:0\nBit depth                        : 8 bits\nScan type                        : Progressive\nCompression mode                 : Lossy\nBits/(Pixel*Frame)               : 0.200\nStream size                      : 787 MiB (92%)\nWriting library                  : XviD 1.2.1 (UTC 2008-12-04)\n\nAudio\nID                               : 1\nFormat                           : AC-3\nFormat/Info                      : Audio Coding 3\nMode extension                   : CM (complete main)\nCodec ID                         : 2000\nDuration                         : 47mn 14s\nBit rate mode                    : Constant\nBit rate                         : 192 Kbps\nChannel(s)                       : 2 channels\nChannel positions                : Front: L R\nSampling rate                    : 48.0 KHz\nBit depth                        : 16 bits\nCompression mode                 : Lossy\nStream size                      : 64.9 MiB (8%)\nAlignment                        : Aligned on interleaves\nInterleave, duration             : 32 ms (0.96 video frame)\n\n\n===================================================================================\t\n\nNumber 6 is not as good as the other banned in america's, But that's just my opinion....\n\nThis was released in january of 2012.\n\nWatch at your own risk, You have been warned. \t","torrent":{"xt":"urn:btih:b0511264fda0bbf9653045be46fec818bf608282","amp;dn":"Banned+In+America+6+%282012%29+DVDRip+XviD","amp;tr":["udp%3A%2F%2Ftracker.openbittorrent.com%3A80","udp%3A%2F%2Fopen.demonii.com%3A1337","udp%3A%2F%2Ftracker.coppersurfer.tk%3A6969","udp%3A%2F%2Fexodus.desync.com%3A6969"],"infoHash":"b0511264fda0bbf9653045be46fec818bf608282","infoHashBuffer":{"type":"Buffer","data":[176,81,18,100,253,160,187,249,101,48,69,190,70,254,200,24,191,96,130,130]},"announce":[],"urlList":[]}}